<svg width="152" height="43" viewBox="0 0 152 43" fill="none" xmlns="http://www.w3.org/2000/svg">
<path d="M18.0025 42.9869C17.8213 42.7461 17.5354 42.8175 17.3032 42.7673C12.53 41.7353 9.24243 37.5199 9.32156 32.5081C9.34922 30.0989 10.1958 27.777 11.7123 25.9513C13.2288 24.1255 15.3179 22.9129 17.612 22.5268C22.8318 21.5927 28.0057 25.3212 28.9578 30.7008C29.9456 36.2815 26.5457 41.6162 21.3003 42.7329C21.0068 42.7964 20.675 42.7567 20.4223 42.9975H19.7842C19.4081 42.8917 19.0116 42.8917 18.6356 42.9975L18.0025 42.9869Z" fill="white"/>
<path d="M151.987 31.0843C150.831 31.3251 149.662 31.1717 148.501 31.1849C148.056 31.1849 147.852 30.7377 147.663 30.3619C146.94 28.9171 146.217 27.4741 145.494 26.0328C145.19 25.4322 145.08 25.4136 144.639 25.8979C143.873 26.742 143.773 27.7714 143.873 28.8563C143.911 29.2744 143.967 29.6898 143.97 30.1053C143.97 30.997 143.549 31.3992 142.694 31.3119C142.102 31.2284 141.504 31.1913 140.907 31.2008C140.361 31.2299 140.228 30.9362 140.233 30.4307C140.248 28.1392 140.233 25.8476 140.233 23.5507C140.233 19.9811 140.203 16.4061 140.192 12.8444C140.192 11.7198 140.282 11.6457 141.351 11.6986C141.88 11.7202 142.41 11.714 142.939 11.6801C143.705 11.6378 143.891 11.7859 143.891 12.601C143.891 14.7364 143.863 16.8745 143.85 19.0099C143.85 19.8038 143.85 20.5976 143.85 21.3915C143.85 21.5317 143.763 21.7328 143.95 21.7963C144.136 21.8598 144.192 21.6561 144.271 21.5317C145.098 20.3039 145.948 19.0946 146.729 17.8271C147.291 16.9221 148.005 16.5226 149.026 16.7184C149.621 16.8322 150.216 16.676 150.813 16.7184C150.982 16.7184 151.173 16.6919 151.275 16.8692C151.377 17.0465 151.211 17.1894 151.114 17.3243C150.078 18.7744 149.052 20.2351 147.998 21.6693C147.638 22.1615 147.551 22.6113 147.862 23.1776C149.248 25.7126 150.614 28.2609 151.985 30.8039L151.987 31.0843Z" fill="white"/>
<path d="M25.4047 0.0131836C26.0046 0.330722 26.5763 0.674717 26.8188 1.39712C27.1838 2.48998 26.6478 3.54842 25.517 3.92417C25.0391 4.08843 24.5178 4.04948 24.0676 3.81583C23.6173 3.58219 23.2748 3.17293 23.1152 2.67785C22.7629 1.51618 23.2862 0.460381 24.3735 0.142843C24.4705 0.116381 24.5879 0.142845 24.6288 0.0131836H25.4047Z" fill="white"/>
<path d="M0 20.1109C0.206751 19.96 0.403295 19.7907 0.617703 19.6584C1.21754 19.2906 1.79694 19.4149 2.24618 19.9891C2.63926 20.4919 2.6265 20.9629 2.20534 21.4683C2.02946 21.7211 1.76516 21.8925 1.46895 21.9459C1.17274 21.9993 0.86813 21.9305 0.62025 21.7541C0.403289 21.6218 0.206751 21.4524 0 21.3016V20.1109Z" fill="white"/>
<path d="M151.872 38.7477C151.909 38.7423 151.946 38.7423 151.982 38.7477V40.3354H151.928H151.872C151.718 40.1016 151.635 39.8249 151.635 39.5415C151.635 39.2582 151.718 38.9815 151.872 38.7477Z" fill="white"/>
<path d="M18.6331 42.9868C18.8078 42.8828 19.0058 42.8281 19.2074 42.8281C19.4089 42.8281 19.6069 42.8828 19.7817 42.9868H18.6331Z" fill="white"/>
<path d="M34.3183 8.58681C38.3768 8.61062 41.4117 11.7887 41.3734 15.9749C41.3584 16.9353 41.1611 17.8832 40.7926 18.7645C40.4241 19.6458 39.8917 20.4432 39.2259 21.1111C38.5601 21.7791 37.7738 22.3044 36.912 22.6572C36.0502 23.01 35.1299 23.1833 34.2035 23.1672C30.8036 23.1195 27.0285 20.4522 27.1688 15.5965C27.2863 11.6034 30.3084 8.56299 34.3183 8.58681Z" fill="white"/>
<path d="M63.9624 17.9676C64.3795 17.434 64.9149 17.0129 65.5229 16.7401C66.1309 16.4674 66.7935 16.351 67.4542 16.401C69.3788 16.4725 70.4993 17.4595 70.8133 19.4123C70.8902 19.8908 70.9304 20.3748 70.9332 20.8598C70.9332 23.9664 70.9332 27.0703 70.9332 30.1769C70.9332 31.1375 70.8337 31.2354 69.9122 31.201C69.3405 31.1851 68.7687 31.201 68.197 31.201C67.3419 31.2168 67.2577 31.1374 67.2577 30.2272V21.6378C67.2577 21.4393 67.2577 21.2382 67.2577 21.0424C67.1785 19.9839 66.5736 19.243 65.7594 19.2086C65.2879 19.2176 64.8349 19.4005 64.4817 19.7244C64.1286 20.0484 63.8983 20.4922 63.8322 20.9762C63.8028 21.2609 63.7926 21.5474 63.8016 21.8336C63.8016 24.6561 63.8016 27.4787 63.8016 30.3013C63.8016 31.1163 63.7123 31.201 62.9184 31.2063C62.2165 31.2063 61.5146 31.2063 60.8127 31.2274C60.343 31.2274 60.1184 31.0395 60.1184 30.5209C60.1184 24.5512 60.1184 18.5815 60.1184 12.6117C60.1184 11.8338 60.3328 11.6538 61.0832 11.6829C61.7188 11.7067 62.3595 11.7226 62.9925 11.6829C63.5591 11.6485 63.8118 11.847 63.8041 12.4768C63.7837 14.0645 63.8041 15.6522 63.8041 17.2399V17.9358L63.9624 17.9676Z" fill="white"/>
<path d="M21.3538 7.44883C21.6908 10.9603 18.3496 14.2309 15.0543 14.2891C11.5983 14.3473 8.60676 11.3334 8.56081 7.76635C8.54383 6.88297 8.6971 6.00496 9.01165 5.18377C9.32619 4.36258 9.79568 3.61475 10.3926 2.98409C10.9895 2.35343 11.7019 1.85262 12.4879 1.51104C13.2739 1.16946 14.1178 0.993975 14.9701 0.994855C18.347 0.949871 21.4789 4.13849 21.3538 7.44883Z" fill="white"/>
<path d="M95.5876 21.8598C96.5039 20.7114 97.4483 19.6317 98.066 18.314C98.5765 17.237 99.4571 16.7263 100.58 16.6945C101.257 16.6681 101.938 16.7236 102.622 16.7395C103.133 16.7395 103.156 16.9406 102.877 17.3296C101.856 18.7559 100.835 20.2086 99.7966 21.619C99.3576 22.2091 99.3372 22.7198 99.6894 23.3628C100.94 25.6332 102.155 27.9248 103.378 30.2137C103.516 30.4784 103.789 30.743 103.602 31.0526C103.416 31.3622 103.092 31.2007 102.837 31.1822C102.477 31.174 102.117 31.2033 101.762 31.2696C100.598 31.4363 99.72 31.0473 99.1662 29.9306C98.5306 28.6419 97.969 27.3135 97.2671 26.0593C96.8919 25.3871 96.8408 25.3739 96.3584 25.9587C96.0759 26.2729 95.8615 26.646 95.7294 27.0531C95.5973 27.4602 95.5507 27.8918 95.5927 28.3191C95.6642 29.06 95.6131 29.8142 95.6182 30.563C95.6182 31.0446 95.3757 31.2246 94.9341 31.2193C94.1505 31.2193 93.3644 31.2193 92.5782 31.2193C92.1315 31.2193 91.9146 31.0261 91.9222 30.5445C92.0294 24.6859 91.9222 18.83 91.9222 12.9714C91.918 12.7292 91.9291 12.487 91.9554 12.2464C91.9563 12.1627 91.9745 12.0803 92.0088 12.0046C92.0431 11.9289 92.0926 11.8617 92.154 11.8075C92.2155 11.7533 92.2874 11.7135 92.365 11.6906C92.4426 11.6677 92.524 11.6623 92.6037 11.6748C93.3884 11.7211 94.175 11.7211 94.9597 11.6748C95.5595 11.6377 95.6284 12.077 95.6233 12.5586C95.6131 13.924 95.6063 15.2894 95.6029 16.6548C95.5825 18.3933 95.5876 20.1266 95.5876 21.8598Z" fill="white"/>
<path d="M78.8917 23.9186C78.8917 21.8281 78.8917 19.7368 78.8917 17.6446C78.8917 16.811 79.0244 16.6787 79.8284 16.7422C80.3391 16.7692 80.8511 16.756 81.3599 16.7025C82.1971 16.6417 82.4141 16.856 82.4319 17.7239C82.4319 17.8509 82.3783 18.0097 82.5417 18.0573C82.7051 18.105 82.7969 17.9383 82.8914 17.8298C84.0885 16.4617 85.5843 16.1706 87.251 16.5464C88.757 16.8851 89.6682 18.1526 89.6937 20.1108C89.7397 23.5508 89.7167 26.9907 89.7295 30.4149C89.7295 31.0023 89.5023 31.2722 88.9203 31.2087C88.2407 31.1552 87.558 31.1552 86.8784 31.2087C86.1866 31.2484 86.0182 31.0764 86.0182 30.3302C86.0182 28.4382 86.0335 26.5436 86.036 24.6516C86.036 23.4396 86.0233 22.2303 86.0156 21.0184C86.0156 19.907 85.643 19.4307 84.673 19.2958C84.241 19.2182 83.7967 19.311 83.4274 19.5558C83.058 19.8006 82.7903 20.1798 82.677 20.6188C82.5955 20.9381 82.5594 21.2679 82.5698 21.5979L82.5928 30.1185C82.5928 31.0896 82.4396 31.2617 81.5309 31.2008C80.9809 31.1677 80.4295 31.1677 79.8795 31.2008C79.0167 31.2484 78.8917 31.1188 78.8917 30.2005C78.89 28.1048 78.89 26.0108 78.8917 23.9186Z" fill="white"/>
<path d="M130.809 18.1739C131.618 17.2239 132.553 16.5862 133.75 16.4248C136.279 16.0834 137.913 17.5256 137.946 20.1823C137.977 22.7808 137.966 25.3793 137.972 27.9779C137.972 28.8141 137.972 29.6529 137.972 30.4891C137.984 31.0183 137.765 31.2326 137.242 31.2088C136.522 31.1797 135.797 31.185 135.077 31.2088C134.528 31.2353 134.278 30.9786 134.273 30.4415C134.268 29.9043 134.309 29.2983 134.306 28.7267C134.296 26.1529 134.282 23.5773 134.265 21C134.265 19.8489 133.872 19.3779 132.864 19.2588C132.428 19.202 131.987 19.3163 131.628 19.5792C131.269 19.8422 131.018 20.2347 130.924 20.6798C130.861 20.9583 130.829 21.2432 130.827 21.5292C130.827 24.3694 130.841 27.2096 130.868 30.0498C130.868 31.0554 130.702 31.2512 129.717 31.1824C129.146 31.1479 128.573 31.1479 128.002 31.1824C127.328 31.2141 127.185 31.0633 127.162 30.3515C127.162 30.198 127.162 30.0419 127.162 29.8884C127.177 26.2349 127.191 22.5815 127.203 18.928C127.203 18.4226 127.177 17.9172 127.162 17.4118C127.146 16.9064 127.432 16.618 127.928 16.6841C128.561 16.7516 129.199 16.7516 129.832 16.6841C130.498 16.6232 130.692 16.8561 130.689 17.5653C130.666 17.6697 130.665 17.778 130.686 17.883C130.706 17.988 130.749 18.0872 130.809 18.1739Z" fill="white"/>
<path d="M124.934 22.4315C124.934 24.8739 125.064 27.3163 124.982 29.7587C125.013 30.043 125.089 30.3202 125.207 30.579C125.314 30.9627 125.166 31.1982 124.788 31.2061C123.982 31.2247 123.175 31.2352 122.368 31.2061C121.871 31.185 121.633 30.8357 121.567 30.3355C121.549 30.1979 121.549 29.9968 121.383 29.9518C121.217 29.9068 121.128 30.0683 121.031 30.1873C119.854 31.775 117.904 31.775 116.385 31.2246C116.003 31.0832 115.657 30.8509 115.377 30.5462C115.096 30.2416 114.888 29.8731 114.77 29.4702C114.363 28.3508 114.263 27.1362 114.481 25.9614C114.737 24.7151 115.502 23.9186 116.582 23.4026C117.743 22.8496 119.007 22.6088 120.217 22.2145C121.12 21.9102 121.493 21.3122 121.416 20.3807C121.392 19.9915 121.227 19.6261 120.954 19.3577C120.681 19.0894 120.32 18.9378 119.944 18.9333C119.57 18.9001 119.197 19.0067 118.892 19.2338C118.587 19.461 118.371 19.7936 118.282 20.1717C118.045 21.2063 118.045 21.1931 117.029 21.1349C116.562 21.1119 116.095 21.1208 115.63 21.1613C115.084 21.2037 114.915 20.9179 114.928 20.4098C114.931 19.6206 115.172 18.8522 115.618 18.2121C116.063 17.5721 116.69 17.0924 117.412 16.8402C119.255 16.1575 121.28 16.2342 123.07 17.0545C124.413 17.6446 124.857 18.8539 124.926 20.2564C124.962 20.9735 124.934 21.6985 124.934 22.4315Z" fill="white"/>
<path d="M54.7329 23.0666C54.7329 25.4693 54.7329 27.8711 54.7329 30.2721C54.7329 31.1003 54.5925 31.2485 53.8063 31.2009C53.1704 31.1652 52.533 31.1652 51.8971 31.2009C51.1313 31.2432 50.9603 31.0659 50.9527 30.2562C50.9527 29.5311 50.9859 28.8061 50.9884 28.0784C50.9884 24.0668 50.9884 20.0562 50.9884 16.0464C50.9884 14.9456 50.968 14.9297 49.9317 14.9297C49.1455 14.9297 48.3594 14.9297 47.5706 14.9297C47.152 14.9297 46.9249 14.755 46.9121 14.3184C46.8917 13.7468 46.8559 13.1753 46.8764 12.6064C46.8715 12.4949 46.8887 12.3836 46.9269 12.2793C46.9652 12.175 47.0237 12.08 47.0989 12.0001C47.174 11.9202 47.2642 11.8572 47.3637 11.8149C47.4633 11.7726 47.5702 11.752 47.6778 11.7543C47.8897 11.7358 48.1016 11.7067 48.3109 11.7067C51.4147 11.6908 54.5185 11.6767 57.6223 11.6643C58.7326 11.6643 58.7811 11.7252 58.7377 12.8498C58.7224 13.2653 58.7505 13.686 58.7709 14.1014C58.799 14.6307 58.6101 14.9403 58.046 14.927C57.2369 14.9085 56.4303 14.927 55.6211 14.9006C54.8733 14.8741 54.7227 15.0064 54.7227 15.787C54.7227 18.2109 54.7227 20.6348 54.7227 23.0587L54.7329 23.0666Z" fill="white"/>
<path d="M107.687 23.1775C107.687 20.8648 107.687 18.5538 107.687 16.2446C107.687 15.038 107.518 14.8872 106.362 14.9216C105.663 14.9454 104.961 14.9216 104.259 14.9216C103.809 14.9216 103.59 14.7337 103.603 14.2521C103.615 13.6593 103.638 13.0613 103.603 12.4712C103.567 11.8811 103.804 11.6377 104.368 11.6536C105.407 11.68 106.449 11.6985 107.488 11.6959C109.803 11.6959 112.118 11.6668 114.433 11.6589C115.336 11.6589 115.454 11.7779 115.479 12.7173C115.541 14.7257 115.364 14.9163 113.437 14.9163C113.098 14.9163 112.758 14.9163 112.416 14.9163C111.633 14.9321 111.434 15.1332 111.416 15.9324C111.416 16.4616 111.416 16.9908 111.416 17.5201C111.416 21.7539 111.416 25.9798 111.416 30.1978C111.416 31.0922 111.278 31.2166 110.395 31.1954C109.782 31.1795 109.167 31.1954 108.554 31.1954C107.801 31.1954 107.643 31.071 107.641 30.2957C107.641 27.9195 107.641 25.5379 107.641 23.1511L107.687 23.1775Z" fill="white"/>
<path d="M39.8441 30.0099C39.8321 31.3255 39.3232 32.5838 38.4266 33.5149C37.5299 34.4459 36.317 34.9755 35.048 34.99C32.6538 35.0059 30.3565 32.5899 30.4076 30.0549C30.4416 28.7837 30.9553 27.5771 31.8383 26.6944C32.7213 25.8117 33.9031 25.3233 35.1297 25.3342C37.6107 25.3262 39.8492 27.5808 39.8441 30.0099Z" fill="white"/>
<path d="M73.1284 23.9477C73.1284 21.8123 73.1284 19.6768 73.1284 17.5414C73.1284 16.9195 73.3148 16.6655 73.9503 16.7211C74.6305 16.7583 75.3121 16.7583 75.9923 16.7211C76.7121 16.7052 76.8423 16.8296 76.8423 17.589C76.8423 20.7644 76.8355 23.9336 76.8219 27.0967C76.8219 28.1763 76.8423 29.2533 76.8398 30.3329C76.8398 31.0738 76.6764 31.2141 75.9694 31.2008C75.3108 31.1903 74.6523 31.1903 73.9937 31.2008C73.228 31.2008 73.1438 31.1373 73.1412 30.354C73.131 28.2195 73.1267 26.084 73.1284 23.9477Z" fill="white"/>
<path d="M4.18374 30.0497C2.0805 30.0497 0.656217 28.5785 0.64856 26.4033C0.64856 24.5748 2.26173 22.9633 4.08675 22.9633C4.5398 22.9558 4.98969 23.0428 5.40965 23.2192C5.82962 23.3956 6.21108 23.6577 6.53136 23.99C6.85164 24.3222 7.1042 24.7179 7.27401 25.1534C7.44382 25.5889 7.52741 26.0554 7.51982 26.5251C7.51472 28.5785 6.12618 30.0497 4.18374 30.0497Z" fill="white"/>
<path d="M24.9354 17.2477C24.9213 18.07 24.5929 18.8529 24.0225 19.4244C23.452 19.996 22.686 20.3094 21.8928 20.296C20.2107 20.2537 18.8298 18.8089 18.8758 17.1206C18.9222 16.3007 19.2702 15.5305 19.8482 14.9688C20.4261 14.407 21.1899 14.0966 21.9821 14.1014C22.3755 14.1062 22.7641 14.1915 23.1257 14.3524C23.4872 14.5132 23.8145 14.7465 24.0889 15.0388C24.3633 15.3311 24.5793 15.6767 24.7245 16.0558C24.8698 16.4348 24.9414 16.8398 24.9354 17.2477Z" fill="white"/>
<path d="M7.81321 13.3631C7.81321 14.9508 6.37362 16.393 4.78853 16.3877C4.00645 16.3768 3.25911 16.051 2.70461 15.4791C2.15012 14.9072 1.83196 14.1341 1.81745 13.3234C1.80213 11.6881 3.20344 10.1877 4.73748 10.193C5.14102 10.1888 5.54133 10.2678 5.91517 10.4254C6.289 10.583 6.62888 10.816 6.91507 11.111C7.20126 11.4059 7.42803 11.757 7.58222 12.1436C7.73641 12.5302 7.81492 12.9448 7.81321 13.3631Z" fill="white"/>
<path d="M13.6838 19.8463C13.6914 20.2424 13.622 20.6361 13.4799 21.004C13.3378 21.3718 13.1257 21.7062 12.8564 21.9874C12.5871 22.2686 12.266 22.4907 11.9122 22.6407C11.5584 22.7906 11.1792 22.8653 10.797 22.8602C9.19147 22.8602 7.77484 21.4472 7.77484 19.841C7.77484 18.2348 9.13021 16.7662 10.6719 16.7794C12.525 16.7979 13.6864 17.994 13.6838 19.8463Z" fill="white"/>
<path d="M53.4921 37.7871C53.3211 38.5042 53.1297 39.2186 52.9816 39.9437C52.9178 40.285 52.8157 40.5523 52.4584 40.5735C52.0627 40.5946 51.9147 40.3088 51.8636 39.9463C51.7848 39.2475 51.5582 38.5753 51.2 37.9776C51.2 38.663 51.2 39.3483 51.2 40.0337C51.2 40.3195 51.2 40.5841 50.8273 40.5814C50.4547 40.5788 50.4496 40.3168 50.4521 40.031C50.4521 38.8641 50.4521 37.6998 50.4649 36.5328C50.4649 36.2047 50.424 35.8421 50.9167 35.8421C51.348 35.8421 51.8049 35.776 51.8866 36.4058C51.9766 37.0742 52.1411 37.7295 52.3767 38.3586C52.8387 37.8029 52.7876 37.1097 52.9408 36.5063C53.0607 36.0194 53.3032 35.7972 53.7907 35.8316C54.1762 35.8554 54.3804 36.0194 54.3804 36.4349C54.3804 37.6697 54.3804 38.9046 54.3804 40.1395C54.3804 40.4279 54.3038 40.6211 53.9924 40.5999C53.681 40.5788 53.607 40.3909 53.6095 40.1025C53.6095 39.3351 53.6095 38.5677 53.6095 37.8003L53.4921 37.7871Z" fill="white"/>
<path d="M74.8666 11.3626C76.8091 11.3414 76.8091 11.3414 76.8065 13.3498C76.8065 14.5353 76.7708 14.5803 75.64 14.5776C75.1117 14.5776 74.5808 14.5776 74.0524 14.5379C73.4602 14.4983 73.1131 14.1781 73.1182 13.5271C73.1182 12.9979 73.1182 12.4687 73.1335 11.9394C73.1232 11.8573 73.1316 11.7738 73.1581 11.6957C73.1845 11.6175 73.2283 11.5469 73.2859 11.4895C73.3435 11.4321 73.4133 11.3895 73.4897 11.3652C73.5661 11.3408 73.6469 11.3354 73.7257 11.3494C74.106 11.3785 74.4863 11.3626 74.8666 11.3626Z" fill="white"/>
<path d="M144.922 38.3401C145.241 37.6918 144.94 37.0011 145.067 36.3396C145.113 36.1041 145.055 35.8421 145.412 35.8448C145.769 35.8474 145.833 36.1094 145.836 36.374C145.836 37.5833 145.836 38.7926 145.836 40.0019C145.836 40.3115 145.749 40.5761 145.386 40.5999C145.238 40.6277 145.086 40.5965 144.959 40.5126C144.832 40.4287 144.74 40.2983 144.702 40.1474C144.48 39.4435 144.251 38.745 144 37.9696C143.917 38.0654 143.856 38.1794 143.822 38.3032C143.787 38.4269 143.78 38.5571 143.801 38.6841C143.801 39.1683 143.801 39.65 143.801 40.1342C143.801 40.3988 143.732 40.5629 143.457 40.5787C143.181 40.5946 143.046 40.4068 143.041 40.1289C143.041 39.6685 143.041 39.2054 143.041 38.745C143.041 37.9749 143.041 37.2049 143.041 36.4349C143.041 36.1702 143.041 35.8845 143.398 35.8448C143.755 35.8051 144.029 35.8739 144.164 36.2734C144.34 36.8344 144.534 37.3928 144.718 37.9511C144.753 38.1046 144.771 38.2554 144.922 38.3401Z" fill="white"/>
<path d="M66.0889 38.2872C66.071 39.8961 65.2848 40.7825 63.9269 40.7429C63.373 40.7243 63.0565 40.5126 63.0642 39.8829C63.0795 38.7424 63.0642 37.6019 63.0642 36.4587C63.0537 36.3783 63.0598 36.2966 63.0819 36.2187C63.104 36.1409 63.1417 36.0688 63.1926 36.0072C63.2434 35.9455 63.3062 35.8956 63.3769 35.8608C63.4475 35.826 63.5245 35.807 63.6027 35.8051C65.295 35.4585 66.1093 36.2708 66.0889 38.2872Z" fill="white"/>
<path d="M85.8216 36.7392C85.8025 37.1124 85.6601 37.4675 85.4183 37.7447C85.1146 38.0861 85.255 38.4115 85.5204 38.6656C85.7859 38.9196 85.8982 38.5624 86.0539 38.4301C86.2096 38.2977 86.3781 38.1416 86.6129 38.303C86.7014 38.3669 86.7647 38.4619 86.7909 38.5703C86.8172 38.6788 86.8047 38.7935 86.7558 38.8931C86.5925 39.3668 86.3755 39.7981 86.7022 40.3221C86.8681 40.5867 86.544 40.6449 86.3729 40.5867C85.8179 40.4443 85.2385 40.438 84.6806 40.5682C84.4615 40.6002 84.2381 40.566 84.0371 40.4697C83.8362 40.3735 83.6663 40.2192 83.5478 40.0254C83.4293 39.8316 83.3672 39.6065 83.3689 39.3771C83.3706 39.1476 83.4361 38.9236 83.5575 38.7317C83.7382 38.4726 83.8658 38.1779 83.9325 37.8657C83.9993 37.5535 84.0037 37.2305 83.9455 36.9165C83.8383 36.2496 84.1038 35.895 84.7521 35.8421C84.8796 35.8256 85.0089 35.8359 85.1324 35.8725C85.256 35.909 85.3711 35.971 85.4709 36.0548C85.5708 36.1385 85.6533 36.2423 85.7136 36.3599C85.7738 36.4775 85.8106 36.6065 85.8216 36.7392Z" fill="white"/>
<path d="M107.393 38.1894C107.773 37.721 107.73 37.1944 107.817 36.7128C107.835 36.4719 107.906 36.2384 108.024 36.0301C108.114 35.8915 108.251 35.793 108.408 35.7543C108.565 35.7155 108.73 35.7394 108.871 35.8211C109.213 35.9666 109.096 36.218 109.027 36.48C108.72 37.6205 108.578 38.798 108.261 39.9411C108.108 40.4995 107.751 40.5868 107.322 40.6212C106.842 40.6583 106.811 40.2296 106.73 39.9068C106.474 38.753 106.27 37.5914 106.017 36.4376C105.943 36.0936 105.915 35.8396 106.321 35.7443C106.393 35.7222 106.468 35.7165 106.542 35.7278C106.616 35.7391 106.686 35.7671 106.749 35.8098C106.811 35.8524 106.863 35.9087 106.902 35.9747C106.942 36.0406 106.966 36.1147 106.975 36.1916C107.135 36.8293 107.25 37.4749 107.393 38.1894Z" fill="white"/>
<path d="M117.534 38.3481C117.534 37.7765 117.508 37.2049 117.534 36.636C117.577 35.9189 117.827 35.7099 118.506 35.7363C119.918 35.7866 120.36 36.427 119.984 37.8532C119.891 38.1483 119.91 38.4694 120.038 38.7503C120.257 39.2054 120.176 39.6976 120.183 40.1765C120.193 40.2315 120.189 40.288 120.174 40.3414C120.158 40.3947 120.13 40.4435 120.093 40.4838C120.056 40.524 120.01 40.5545 119.959 40.5728C119.908 40.5912 119.854 40.5969 119.801 40.5893C119.545 40.5893 119.344 40.4703 119.321 40.1739C119.295 39.8246 119.321 39.47 119.27 39.1154C119.219 38.7608 119.076 38.573 118.728 38.5862C118.381 38.5994 118.361 38.8826 118.358 39.1551C118.356 39.4277 118.358 39.6844 118.358 39.949C118.358 40.2824 118.318 40.584 117.899 40.5814C117.48 40.5788 117.506 40.2665 117.506 39.9728V38.3269L117.534 38.3481Z" fill="white"/>
<path d="M100.031 38.2634C100.031 37.6469 100.044 37.033 100.031 36.4111C100.031 35.9851 100.213 35.8078 100.603 35.8158H100.667C102.517 35.7231 103.031 36.2841 103.02 38.2264C103.02 39.8485 102.51 40.51 101.017 40.7164C100.251 40.8223 100.036 40.555 100.034 39.7691C100.029 39.2716 100.031 38.7689 100.031 38.2634Z" fill="white"/>
<path d="M151.872 38.7475C151.872 39.2767 151.872 39.8059 151.872 40.3352C151.806 40.4146 151.696 40.5733 151.678 40.5627C151.168 40.2584 150.657 40.5627 150.147 40.5865C149.921 40.6096 149.694 40.5469 149.51 40.4102C149.325 40.2735 149.194 40.072 149.141 39.843C148.797 38.7917 148.814 37.6497 149.187 36.6094C149.412 35.9796 149.912 35.7944 150.517 35.8314C150.774 35.8246 151.025 35.9095 151.229 36.0718C151.433 36.2341 151.577 36.464 151.638 36.7232C151.714 36.9878 151.735 37.1942 151.464 37.3344C151.413 37.3654 151.356 37.3845 151.297 37.3905C151.238 37.3965 151.179 37.3892 151.123 37.369C151.067 37.3489 151.017 37.3165 150.974 37.2739C150.931 37.2314 150.898 37.1798 150.877 37.1227C150.742 36.8793 150.673 36.5459 150.308 36.6253C149.943 36.7046 149.935 37.0724 149.881 37.3635C149.723 38.0519 149.749 38.7722 149.958 39.446C149.987 39.5654 150.058 39.6695 150.156 39.7383C150.254 39.8071 150.374 39.8359 150.491 39.8191C150.77 39.79 150.877 39.5757 150.961 39.3429C151.071 39.0465 150.869 38.9565 150.66 38.8771C150.618 38.869 150.577 38.852 150.541 38.8273C150.505 38.8026 150.474 38.7707 150.451 38.7334C150.427 38.6961 150.41 38.6543 150.403 38.6103C150.395 38.5664 150.395 38.5212 150.405 38.4776C150.443 38.2606 150.609 38.2315 150.78 38.1838C151.484 37.9986 151.689 38.1045 151.872 38.7475Z" fill="white"/>
<path d="M74.887 35.8448C74.9614 35.8268 75.0386 35.8253 75.1135 35.8405C75.1884 35.8557 75.2594 35.8872 75.3216 35.933C75.3839 35.9788 75.4361 36.0378 75.4747 36.1061C75.5133 36.1744 75.5375 36.2504 75.5456 36.3291C75.8417 37.541 76.1403 38.753 76.4287 39.9676C76.4849 40.1978 76.5513 40.4783 76.2373 40.5762C75.9233 40.6741 75.6707 40.6132 75.5609 40.2692C75.4511 39.9252 75.3056 39.6447 74.8641 39.6527C74.4225 39.6606 74.2362 39.9014 74.1417 40.3195C74.0473 40.7376 73.7231 40.6185 73.4602 40.5841C73.1973 40.5497 73.182 40.3195 73.2407 40.076C73.5444 38.8429 73.8456 37.6098 74.1519 36.3714C74.1633 36.2851 74.1918 36.2021 74.2358 36.1278C74.2798 36.0536 74.3383 35.9896 74.4075 35.9401C74.4766 35.8905 74.555 35.8564 74.6376 35.8401C74.7201 35.8237 74.8051 35.8253 74.887 35.8448Z" fill="white"/>
<path d="M95.6206 35.8422C96.0673 35.7734 96.2026 36.0565 96.2868 36.4031C96.5727 37.5754 96.8534 38.7476 97.147 39.9172C97.2108 40.1819 97.3231 40.4597 96.976 40.5761C96.9073 40.6093 96.8324 40.6262 96.7567 40.6256C96.6809 40.625 96.6063 40.607 96.5381 40.5728C96.4699 40.5386 96.4099 40.4891 96.3625 40.4279C96.3151 40.3667 96.2814 40.2953 96.2638 40.2189C96.1592 39.859 95.9933 39.6394 95.5976 39.6553C95.2684 39.6685 94.9978 39.7558 94.934 40.1316C94.8549 40.6053 94.5537 40.6899 94.1836 40.5761C93.7164 40.4306 93.9819 40.0866 94.0457 39.8167C94.301 38.7291 94.5741 37.6442 94.8319 36.5566C94.9519 36.1042 95.1203 35.7681 95.6206 35.8422Z" fill="white"/>
<path d="M134.447 35.8262C134.675 35.8269 134.899 35.8886 135.097 36.0054C135.295 36.1223 135.46 36.2902 135.578 36.493C135.718 36.7073 135.792 36.9455 135.578 37.1492C135.363 37.353 135.108 37.2815 134.906 37.0672C134.85 37.0019 134.798 36.933 134.751 36.8608C134.69 36.7556 134.599 36.6732 134.49 36.6256C134.381 36.578 134.26 36.5677 134.146 36.5962C134.051 36.6169 133.964 36.6682 133.899 36.7429C133.834 36.8175 133.793 36.9116 133.783 37.0116C133.771 37.1334 133.799 37.2559 133.862 37.3595C133.925 37.4631 134.019 37.5419 134.13 37.5832C134.414 37.7288 134.71 37.8478 134.99 38.004C135.238 38.1115 135.443 38.3032 135.571 38.5475C135.7 38.7918 135.744 39.0742 135.697 39.3482C135.618 39.9462 135.335 40.3802 134.743 40.5257C134.151 40.6713 133.594 40.6527 133.181 40.1076C133.081 39.9663 133.011 39.805 132.974 39.634C132.913 39.3694 132.941 39.1444 133.229 39.0492C133.518 38.9539 133.668 39.0756 133.74 39.3614C133.75 39.4326 133.774 39.501 133.81 39.5626C133.846 39.6243 133.893 39.6779 133.949 39.7205C134.005 39.763 134.068 39.7937 134.136 39.8106C134.203 39.8276 134.274 39.8305 134.342 39.8192C134.579 39.7875 134.659 39.6102 134.702 39.4143C134.733 39.2729 134.712 39.1245 134.642 38.9986C134.573 38.8727 134.46 38.7784 134.327 38.7343C134.138 38.639 133.936 38.5649 133.745 38.4697C133.433 38.346 133.178 38.1054 133.029 37.7956C132.881 37.4858 132.85 37.1295 132.943 36.7973C133.091 36.1517 133.548 35.8262 134.447 35.8262Z" fill="white"/>
<path d="M57.6248 38.4804C57.6248 37.8215 57.612 37.1573 57.6248 36.5064C57.6185 36.4118 57.6327 36.3169 57.6664 36.2288C57.7001 36.1406 57.7524 36.0614 57.8195 35.997C57.8865 35.9325 57.9667 35.8844 58.054 35.8563C58.1414 35.8281 58.2337 35.8206 58.3242 35.8343C58.7249 35.8343 59.1282 35.8343 59.5315 35.8343C59.7867 35.8343 59.9424 35.9269 59.9552 36.2021C59.968 36.4773 59.7944 36.6308 59.5162 36.6281C59.3477 36.6281 59.1767 36.6281 59.0057 36.6281C58.5896 36.6043 58.439 36.8398 58.4263 37.2314C58.4135 37.623 58.5973 37.8162 58.9955 37.8506C59.312 37.8771 59.8557 37.5437 59.8582 38.237C59.8608 38.9303 59.312 38.573 58.998 38.6312C58.6841 38.6894 58.439 38.8006 58.4416 39.2055C58.4441 39.6103 58.6611 39.7929 59.0363 39.8008C59.2686 39.8008 59.5034 39.8008 59.7331 39.8167C59.7812 39.8222 59.8277 39.8377 59.8698 39.8623C59.9119 39.887 59.9487 39.9202 59.9781 39.9601C60.0074 39.9999 60.0287 40.0455 60.0405 40.0941C60.0524 40.1427 60.0546 40.1932 60.0471 40.2427C60.0454 40.2872 60.0354 40.3309 60.0174 40.3714C59.9994 40.4118 59.974 40.4482 59.9424 40.4784C59.9109 40.5087 59.8739 40.5322 59.8336 40.5476C59.7934 40.563 59.7505 40.57 59.7076 40.5682C59.1129 40.5815 58.5182 40.5973 57.9209 40.5814C57.6171 40.5814 57.5712 40.3168 57.5686 40.0522V38.4645L57.6248 38.4804Z" fill="white"/>
<path d="M25.5553 10.7433C25.1499 10.7554 24.7565 10.6003 24.4613 10.3121C24.166 10.0239 23.9931 9.62606 23.9804 9.20586C23.9804 8.41201 24.7896 7.61816 25.5579 7.61816C26.2802 7.61816 27.1506 8.48079 27.1659 9.22172C27.1812 9.99704 26.4027 10.7353 25.5553 10.7433Z" fill="white"/>
<path d="M111.832 38.2156C111.857 37.6229 111.88 37.0301 111.908 36.4374C111.901 36.3649 111.909 36.2917 111.93 36.2223C111.952 36.1529 111.987 36.0889 112.033 36.0343C112.08 35.9796 112.136 35.9355 112.2 35.9047C112.264 35.8739 112.333 35.857 112.403 35.8552C112.914 35.8261 113.424 35.8552 113.935 35.8552C113.978 35.8534 114.02 35.8612 114.06 35.8782C114.1 35.8952 114.136 35.921 114.165 35.9537C114.194 35.9864 114.216 36.0253 114.229 36.0677C114.242 36.1101 114.246 36.155 114.241 36.1992C114.241 36.4215 114.185 36.6014 113.945 36.6279C113.734 36.6491 113.521 36.6491 113.309 36.6279C112.86 36.5856 112.694 36.829 112.694 37.2524C112.694 37.6758 112.929 37.8848 113.348 37.8425C113.475 37.8425 113.603 37.8266 113.731 37.8213C113.835 37.8178 113.936 37.8574 114.012 37.9313C114.088 38.0053 114.133 38.1075 114.136 38.2156C114.14 38.3237 114.102 38.4287 114.03 38.5076C113.959 38.5865 113.86 38.6328 113.756 38.6363C113.544 38.6257 113.332 38.631 113.121 38.6522C112.781 38.7078 112.684 38.9671 112.702 39.2846C112.72 39.6022 112.855 39.7901 113.169 39.798C113.424 39.798 113.68 39.798 113.935 39.798C113.988 39.7901 114.042 39.7951 114.093 39.8127C114.144 39.8302 114.19 39.8597 114.229 39.8989C114.267 39.9382 114.295 39.9861 114.313 40.0388C114.33 40.0915 114.335 40.1477 114.328 40.2029C114.334 40.258 114.329 40.314 114.311 40.3666C114.294 40.4191 114.265 40.4669 114.227 40.5062C114.189 40.5455 114.143 40.5753 114.093 40.5934C114.042 40.6114 113.988 40.6172 113.935 40.6103H113.807C111.893 40.7135 111.854 40.6659 111.832 38.2156Z" fill="white"/>
<path d="M124.17 38.6339C124.17 38.2635 124.17 37.8877 124.17 37.5173C124.17 37.0489 124.191 36.6176 123.547 36.6282C123.499 36.6277 123.451 36.6163 123.407 36.5947C123.362 36.5732 123.323 36.5419 123.292 36.5032C123.261 36.4644 123.238 36.4191 123.225 36.3703C123.212 36.3216 123.21 36.2705 123.218 36.2206C123.217 36.1707 123.227 36.1212 123.245 36.0752C123.264 36.0292 123.292 35.9878 123.327 35.9537C123.362 35.9195 123.404 35.8933 123.449 35.8769C123.495 35.8604 123.543 35.8541 123.591 35.8581C124.27 35.8581 124.946 35.8581 125.633 35.8581C125.873 35.8581 125.972 35.9984 125.972 36.2339C125.972 36.4694 125.901 36.6572 125.661 36.6361C125.01 36.5779 125.008 37.0171 125.01 37.4829C125.01 38.3173 125.01 39.1508 125.01 39.9835C125.01 40.2693 125.046 40.6106 124.635 40.6C124.224 40.5895 124.17 40.2931 124.175 39.9517C124.175 39.5045 124.17 39.0653 124.17 38.6339Z" fill="white"/>
<path d="M70.1343 38.229C70.1343 38.8217 70.1343 39.4171 70.1343 40.0098C70.1343 40.3221 70.0577 40.5787 69.6902 40.6078C69.3226 40.637 69.2384 40.3432 69.2358 40.0495C69.2256 38.8146 69.2256 37.5798 69.2358 36.3449C69.2358 36.0803 69.2817 35.8157 69.6493 35.8157C70.0169 35.8157 70.1292 36.0459 70.1317 36.374C70.1368 36.9985 70.1343 37.6124 70.1343 38.229Z" fill="white"/>
<path d="M31.7911 2.81299C32.0895 2.82533 32.3725 2.95354 32.5838 3.17218C32.7952 3.39082 32.9195 3.68389 32.9321 3.99316C32.9449 4.63089 32.3935 5.31624 31.8447 5.31624C31.296 5.31624 30.6247 4.66 30.617 4.03816C30.6271 3.7179 30.7538 3.41348 30.9716 3.18617C31.1895 2.95886 31.4823 2.82553 31.7911 2.81299Z" fill="white"/>
<path d="M129.893 38.3056V40.0203C129.893 40.322 129.87 40.6104 129.469 40.6051C129.069 40.5998 129.013 40.3802 129.015 40.0441C129.015 38.834 129.015 37.6247 129.015 36.4163C129.015 36.0908 129.076 35.85 129.449 35.8315C129.822 35.813 129.896 36.0749 129.893 36.3925C129.891 37.0302 129.893 37.6679 129.893 38.3056Z" fill="white"/>
<path d="M139.758 38.1601C139.758 38.774 139.758 39.3879 139.758 40.0124C139.758 40.322 139.705 40.5866 139.33 40.6131C138.954 40.6395 138.868 40.3485 138.868 40.06C138.868 38.8296 138.868 37.5991 138.868 36.3713C138.868 36.0934 138.926 35.842 139.281 35.842C139.636 35.842 139.761 36.0564 139.758 36.3951C139.756 36.9746 139.758 37.5753 139.758 38.1601Z" fill="white"/>
<path d="M121.352 24.0139C121.474 25.0978 121.474 26.1927 121.352 27.2766C121.233 28.2927 120.076 29.0892 119.086 28.9675C118.928 28.948 118.776 28.8954 118.638 28.8131C118.5 28.7308 118.38 28.6204 118.284 28.4886C118.083 28.2006 117.944 27.8699 117.88 27.5203C117.815 27.1706 117.826 26.8105 117.911 26.4655C117.996 26.1206 118.154 25.7994 118.372 25.5248C118.591 25.2501 118.865 25.0288 119.175 24.8766C119.857 24.5775 120.612 24.4982 121.352 24.0139Z" fill="#413D3A"/>
<path d="M63.9419 38.2236C63.9419 37.8717 63.9419 37.5198 63.9419 37.1652C63.9419 36.9164 63.9419 36.6624 64.2431 36.5989C64.3764 36.558 64.519 36.5635 64.6491 36.6146C64.7791 36.6658 64.8893 36.7597 64.9629 36.882C65.3304 37.4616 65.3177 39.0863 64.9374 39.6235C64.8609 39.7302 64.7533 39.8085 64.6305 39.8466C64.5077 39.8848 64.3763 39.8807 64.2559 39.8352C64.0006 39.7743 63.9394 39.5706 63.9419 39.3403C63.9445 38.9699 63.9419 38.5967 63.9419 38.2236Z" fill="#353331"/>
<path d="M84.2059 39.2107C84.2059 38.9461 84.2442 38.6418 84.5275 38.6815C84.9614 38.7212 85.0202 39.1763 85.1095 39.5203C85.1733 39.7558 84.9742 39.8855 84.7624 39.8775C84.3744 39.8484 84.2136 39.5918 84.2059 39.2107Z" fill="#423D38"/>
<path d="M84.8191 37.2314C84.5791 37.2049 84.5128 37.025 84.5051 36.816C84.4975 36.6069 84.6149 36.4138 84.8293 36.4191C85.0437 36.4243 85.1509 36.5964 85.1458 36.8266C85.1515 36.8757 85.1474 36.9254 85.1338 36.9728C85.1202 37.0202 85.0974 37.0642 85.0668 37.1021C85.0362 37.1401 84.9984 37.1711 84.9558 37.1933C84.9132 37.2156 84.8667 37.2285 84.8191 37.2314Z" fill="#423D38"/>
<path d="M118.353 37.2289C118.368 36.9166 118.312 36.5462 118.767 36.5885C118.847 36.5894 118.925 36.6084 118.997 36.6442C119.069 36.6801 119.133 36.7319 119.184 36.796C119.234 36.8601 119.271 36.9349 119.29 37.0152C119.31 37.0955 119.313 37.1793 119.298 37.2607C119.275 37.6152 119.134 37.9116 118.731 37.8957C118.284 37.8798 118.379 37.5041 118.353 37.2289Z" fill="#43403E"/>
<path d="M100.838 38.1867C100.838 37.8559 100.838 37.5252 100.838 37.1944C100.838 36.9298 100.838 36.644 101.18 36.5884C101.315 36.5551 101.458 36.5656 101.587 36.6186C101.717 36.6716 101.828 36.7645 101.905 36.8848C102.242 37.3876 102.249 39.0494 101.905 39.5759C101.829 39.6973 101.718 39.79 101.587 39.8405C101.456 39.8911 101.314 39.8966 101.18 39.8564C100.889 39.8008 100.833 39.568 100.83 39.3087C100.835 38.9356 100.84 38.5598 100.838 38.1867Z" fill="#413C38"/>
<path d="M75.0018 37.2024C75.0733 37.6893 75.132 38.0756 75.183 38.4646C75.1976 38.518 75.1991 38.5744 75.1873 38.6285C75.1755 38.6827 75.1509 38.7329 75.1157 38.7747C75.0804 38.8165 75.0357 38.8485 74.9855 38.8678C74.9353 38.8872 74.8813 38.8932 74.8282 38.8853C74.5322 38.8853 74.4862 38.7001 74.5245 38.4461C74.5909 38.028 74.5883 37.5755 75.0018 37.2024Z" fill="white"/>
<path d="M95.6768 37.144C95.8963 37.5886 95.8554 38.0649 95.932 38.5121C95.9831 38.7767 95.7763 38.8958 95.5287 38.8879C95.2811 38.8799 95.1663 38.7291 95.2122 38.4962C95.3092 38.0331 95.3143 37.5357 95.6768 37.144Z" fill="#403A36"/>
</svg>
