<svg width="119" height="126" viewBox="0 0 119 126" fill="none" xmlns="http://www.w3.org/2000/svg">
<path d="M40.758 92.2502H33.458V78.5835H45.6247L46.8413 83.7085C47.7538 88.1502 44.7122 92.2502 40.758 92.2502Z" fill="#8F1E78"/>
<path d="M100.375 102.5C100.375 102.5 64.4829 78.5835 45.6246 78.5835V30.7502C63.2663 30.7502 100.375 6.8335 100.375 6.8335V102.5Z" fill="#8F1E78"/>
<path d="M15.2083 71.7502C23.6077 71.7502 30.4167 64.1017 30.4167 54.6668C30.4167 45.232 23.6077 37.5835 15.2083 37.5835C6.809 37.5835 0 45.232 0 54.6668C0 64.1017 6.809 71.7502 15.2083 71.7502Z" fill="#8F1E78"/>
<path d="M109.5 44.4169H100.375V64.9169H109.5C114.671 64.9169 118.625 60.4752 118.625 54.6669C118.625 48.8585 114.671 44.4169 109.5 44.4169Z" fill="#8F1E78"/>
<path d="M44.4086 120.266C41.6711 122.316 36.8044 124.366 30.4169 125.05C28.5919 125.391 26.7669 124.025 26.1586 121.633L12.7753 74.8248C12.7753 74.8248 39.5419 53.6414 39.5419 78.5831C39.5419 97.3748 44.1044 107.283 46.2336 111.041C47.7544 113.433 47.7544 116.508 46.2336 118.9C45.6253 119.583 45.0169 119.925 44.4086 120.266Z" fill="#8F1E78"/>
<path d="M15.2083 78.5833H45.625V30.75H15.2083C11.8625 30.75 9.125 33.825 9.125 37.5833V71.75C9.125 75.5083 11.8625 78.5833 15.2083 78.5833Z" fill="#0092DC"/>
<path d="M103.416 109.333C100.071 109.333 97.333 106.258 97.333 102.5V6.83333C97.333 3.075 100.071 0 103.416 0C106.762 0 109.5 3.075 109.5 6.83333V102.5C109.5 106.258 106.762 109.333 103.416 109.333Z" fill="#F7C200"/>
</svg>
