<svg width="101" height="104" viewBox="0 0 101 104" fill="none" xmlns="http://www.w3.org/2000/svg">
<path d="M0.229492 92.604V29.104H100.771V92.604C100.771 98.4248 96.0087 103.187 90.1878 103.187H10.8128C4.99199 103.187 0.229492 98.4248 0.229492 92.604Z" fill="#F7C200"/>
<path d="M100.771 18.5208V34.3958H0.229492V18.5208C0.229492 12.7 4.99199 7.9375 10.8128 7.9375H90.1878C96.0087 7.9375 100.771 12.7 100.771 18.5208Z" fill="#8F1E78"/>
<path d="M74.3125 26.4585C78.6963 26.4585 82.25 22.9048 82.25 18.521C82.25 14.1372 78.6963 10.5835 74.3125 10.5835C69.9287 10.5835 66.375 14.1372 66.375 18.521C66.375 22.9048 69.9287 26.4585 74.3125 26.4585Z" fill="#B71C1C"/>
<path d="M26.6875 26.4585C31.0713 26.4585 34.625 22.9048 34.625 18.521C34.625 14.1372 31.0713 10.5835 26.6875 10.5835C22.3037 10.5835 18.75 14.1372 18.75 18.521C18.75 22.9048 22.3037 26.4585 26.6875 26.4585Z" fill="#B71C1C"/>
<path d="M74.3122 0C71.4018 0 69.0205 2.38125 69.0205 5.29167V18.5208C69.0205 21.4312 71.4018 23.8125 74.3122 23.8125C77.2226 23.8125 79.6039 21.4312 79.6039 18.5208V5.29167C79.6039 2.38125 77.2226 0 74.3122 0Z" fill="#0092DC"/>
<path d="M26.6872 0C23.7768 0 21.3955 2.38125 21.3955 5.29167V18.5208C21.3955 21.4312 23.7768 23.8125 26.6872 23.8125C29.5976 23.8125 31.9788 21.4312 31.9788 18.5208V5.29167C31.9788 2.38125 29.5976 0 26.6872 0Z" fill="#0092DC"/>
<path d="M21.3955 47.625H37.2705V63.5H21.3955V47.625Z" fill="#0092DC"/>
<path d="M42.5622 47.625H58.4372V63.5H42.5622V47.625Z" fill="#0092DC"/>
<path d="M63.7288 47.625H79.6038V63.5H63.7288V47.625Z" fill="#0092DC"/>
<path d="M21.3955 68.7917H37.2705V84.6667H21.3955V68.7917Z" fill="#0092DC"/>
<path d="M42.5622 68.7917H58.4372V84.6667H42.5622V68.7917Z" fill="#0092DC"/>
<path d="M63.7295 68.7915H79.6045V84.6665H63.7295V68.7915Z" fill="#8F1E78"/>
</svg>
