<svg width="122" height="122" viewBox="0 0 122 122" fill="none" xmlns="http://www.w3.org/2000/svg">
<g clip-path="url(#clip0_157_1876)">
<path d="M71.6092 117.004L50.4322 96.3543L95.912 49.9109L117.837 71.3991L71.6092 117.004Z" fill="#8F1E78"/>
<path d="M71.6988 25.7049L50.5995 4.16089L4.46063 49.8623C-1.48688 55.8098 -1.48688 65.4521 4.46063 71.4062L49.9056 117.15L71.3938 97.0472L36.7697 60.6345L71.6993 25.7049H71.6988Z" fill="#0092DC"/>
<path d="M117.532 50.2154L71.7821 4.46538C65.8279 -1.48879 56.1718 -1.48879 50.2176 4.46538C44.263 10.42 44.263 20.0761 50.2176 26.0308L95.9676 71.7808C101.922 77.735 111.578 77.735 117.532 71.7808C123.487 65.8261 123.487 56.17 117.532 50.2159V50.2154Z" fill="#8F1E78"/>
<path d="M60.6498 122.002C68.8808 122.002 75.5533 115.329 75.5533 107.098C75.5533 98.8674 68.8808 92.1949 60.6498 92.1949C52.4188 92.1949 45.7462 98.8674 45.7462 107.098C45.7462 115.329 52.4188 122.002 60.6498 122.002Z" fill="#0092DC"/>
</g>
<defs>
<clipPath id="clip0_157_1876">
<rect width="122" height="122" fill="white"/>
</clipPath>
</defs>
</svg>
