<svg width="128" height="128" viewBox="0 0 128 128" fill="none" xmlns="http://www.w3.org/2000/svg">
<mask id="mask0_157_1866" style="mask-type:alpha" maskUnits="userSpaceOnUse" x="0" y="0" width="128" height="128">
<path d="M49.0736 121.461L6.70811 79.0946C-1.64589 70.7411 -1.64589 57.1971 6.70811 48.8431L49.0731 6.47815C57.4271 -1.87585 70.9711 -1.87585 79.3246 6.47815L121.69 48.8431C130.044 57.1971 130.044 70.7411 121.69 79.0946L79.3246 121.461C70.9711 129.815 57.4271 129.815 49.0736 121.461Z" fill="white"/>
</mask>
<g mask="url(#mask0_157_1866)">
<path d="M49.0736 121.461L6.70811 79.0946C-1.64589 70.7411 -1.64589 57.1971 6.70811 48.8431L49.0731 6.47815C57.4271 -1.87585 70.9711 -1.87585 79.3246 6.47815L121.69 48.8431C130.044 57.1971 130.044 70.7411 121.69 79.0946L79.3246 121.461C70.9711 129.815 57.4271 129.815 49.0736 121.461Z" fill="#F7C200"/>
<path d="M123.598 51.0446C123.024 50.2921 122.414 49.5586 121.726 48.8701L106.788 33.9321C76.999 47.1321 17.7615 49.8656 4.61252 50.3071C4.66352 50.2461 0.410019 58.1771 0.451519 58.0351C17.125 58.8561 98.52 62.1041 123.598 51.0446Z" fill="#8F1E78"/>
<path d="M16.5405 38.5949C32.422 38.1094 67.8875 35.2404 93.6605 20.0024L79.199 5.92242C70.7505 -2.80808 56.7725 -2.24458 48.324 6.48642L16.541 38.5944" fill="#8F1E78"/>
<path d="M48.3175 121.513C56.671 129.867 70.3785 131.027 79.784 121.729L94.714 106.799C69.837 92.2155 34.0325 90.6385 17.7295 90.919L48.3175 121.513Z" fill="#8F1E78"/>
<path d="M-0.79303 68.1265L4.74297 78.785C21.373 79.331 72.178 81.87 107.573 93.2745L121.725 79.1215C122.819 78.0232 123.79 76.8096 124.622 75.502C100.587 63.773 16.8 67.332 0.91047 68.126" fill="#8F1E78"/>
</g>
</svg>
